<svg xmlns="http://www.w3.org/2000/svg" xmlns:xlink="http://www.w3.org/1999/xlink" version="1.1" x="0px" y="0px" viewBox="0 0 56 70" enable-background="new 0 0 56 56" xml:space="preserve" fill="#ffffff"><path d="M47.9736328,12.9511719H30.3691406l5.2480469-5.390625c0.3847656-0.3955078,0.3769531-1.0283203-0.0195312-1.4140625  c-0.3955078-0.3847656-1.0283203-0.3759766-1.4140625,0.0195312l-6.1503906,6.3173828l-8.1357422-9.1474609  c-0.3671875-0.4140625-0.9990234-0.4511719-1.4111328-0.0830078c-0.4130859,0.3671875-0.4501953,0.9990234-0.0830078,1.4111328  l7.369751,8.2871094H8.0263672C5.2548828,12.9511719,3,15.2060547,3,17.9785156v26.5253906  c0,2.7714844,2.2548828,5.0263672,5.0263672,5.0263672h3.0785522l-1.2240601,1.9355469  c-0.2958984,0.4667969-0.15625,1.0839844,0.3105469,1.3789062C10.3574219,52.9501953,10.5419922,53,10.7246094,53  c0.3310547,0,0.65625-0.1650391,0.8457031-0.4658203l1.8997192-3.0039062h29.0599365l1.8997192,3.0039062  C44.6191406,52.8349609,44.9433594,53,45.2753906,53c0.1826172,0,0.3671875-0.0498047,0.5332031-0.1552734  c0.4667969-0.2949219,0.6064453-0.9121094,0.3105469-1.3789062l-1.2240601-1.9355469h3.0785522  C50.7451172,49.5302734,53,47.2753906,53,44.5039062V17.9785156C53,15.2060547,50.7451172,12.9511719,47.9736328,12.9511719z   M51,44.5039062c0,1.6689453-1.3574219,3.0263672-3.0263672,3.0263672H8.0263672C6.3574219,47.5302734,5,46.1728516,5,44.5039062  V17.9785156c0-1.6689453,1.3574219-3.0273438,3.0263672-3.0273438h19.9511719H28h19.9736328  C49.6425781,14.9511719,51,16.3095703,51,17.9785156V44.5039062z"/><path d="M38.1894531,17.3632812H10.1904297c-1.4023438,0-2.5429688,1.140625-2.5429688,2.5429688v22.6699219  c0,1.4013672,1.140625,2.5419922,2.5429688,2.5419922h27.9990234c1.4023438,0,2.5429688-1.140625,2.5429688-2.5419922V19.90625  C40.7324219,18.5039062,39.5917969,17.3632812,38.1894531,17.3632812z M38.7324219,42.5761719  c0,0.2988281-0.2431641,0.5419922-0.5429688,0.5419922H10.1904297c-0.2998047,0-0.5429688-0.2431641-0.5429688-0.5419922V19.90625  c0-0.2998047,0.2431641-0.5429688,0.5429688-0.5429688h27.9990234c0.2998047,0,0.5429688,0.2431641,0.5429688,0.5429688V42.5761719z  "/><path d="M46.1660156,18.8544922c-1.7851562,0-3.2373047,1.4521484-3.2373047,3.2373047s1.4521484,3.2373047,3.2373047,3.2373047  c1.7792969,0,3.2265625-1.4521484,3.2265625-3.2373047S47.9453125,18.8544922,46.1660156,18.8544922z M46.1660156,23.3291016  c-0.6826172,0-1.2373047-0.5546875-1.2373047-1.2373047s0.5546875-1.2373047,1.2373047-1.2373047  c0.6767578,0,1.2265625,0.5546875,1.2265625,1.2373047S46.8427734,23.3291016,46.1660156,23.3291016z"/><path d="M46.1660156,28.6025391c-1.7851562,0-3.2373047,1.4521484-3.2373047,3.2373047s1.4521484,3.2373047,3.2373047,3.2373047  c1.7792969,0,3.2265625-1.4521484,3.2265625-3.2373047S47.9453125,28.6025391,46.1660156,28.6025391z M46.1660156,33.0771484  c-0.6826172,0-1.2373047-0.5546875-1.2373047-1.2373047s0.5546875-1.2373047,1.2373047-1.2373047  c0.6767578,0,1.2265625,0.5546875,1.2265625,1.2373047S46.8427734,33.0771484,46.1660156,33.0771484z"/></svg>